<?xml version="1.0" encoding="utf-8"?>
<!-- Generator: Adobe Illustrator 21.0.2, SVG Export Plug-In . SVG Version: 6.00 Build 0)  -->
<svg version="1.1" id="Layer_1" xmlns="http://www.w3.org/2000/svg" xmlns:xlink="http://www.w3.org/1999/xlink" x="0px" y="0px"
	 viewBox="0 0 92.9 100" style="enable-background:new 0 0 92.9 100;" xml:space="preserve">
<style type="text/css">
	.st0{fill:#FBBA42;}
</style>
<g transform="translate(-330 -260)">
	<g>
		<polygon class="st0" points="351.4,295.7 351.4,302.9 365.7,302.9 365.7,310 351.4,310 351.4,331.4 372.9,331.4 372.9,324.3 
			358.6,324.3 358.6,317.1 372.9,317.1 372.9,295.7 		"/>
		<polygon class="st0" points="397.9,310 397.9,295.7 390.7,295.7 390.7,310 387.1,310 387.1,295.7 380,295.7 380,317.1 
			387.1,317.1 390.7,317.1 390.7,331.4 397.9,331.4 397.9,317.1 405,317.1 405,310 		"/>
		<path class="st0" d="M419,295l-6.5,2.9c2.2,5,3.3,10.2,3.3,15.7c0,21.7-17.6,39.3-39.3,39.3c-21.7,0-39.3-17.6-39.3-39.3
			c0-21.7,17.6-39.3,39.3-39.3v7.1l17.9-10.7L376.4,260v7.1c-25.6,0-46.4,20.8-46.4,46.4c0,25.6,20.8,46.4,46.4,46.4
			c25.6,0,46.4-20.8,46.4-46.4C422.9,307.1,421.6,300.9,419,295z"/>
	</g>
</g>
</svg>
