<?xml version="1.0" encoding="utf-8"?>
<!-- Generator: Adobe Illustrator 21.0.2, SVG Export Plug-In . SVG Version: 6.00 Build 0)  -->
<svg version="1.1" id="Layer_1" xmlns="http://www.w3.org/2000/svg" xmlns:xlink="http://www.w3.org/1999/xlink" x="0px" y="0px"
	 viewBox="0 0 102.2 100" style="enable-background:new 0 0 102.2 100;" xml:space="preserve">
<style type="text/css">
	.st0{fill:#1CBBB4;}
</style>
<path class="st0" d="M62.8,58.1c0-2.5,1.5-4.7,3.3-4.7c1.8,0,3.3,2.2,3.3,4.7c0,2.5-1.5,4.7-3.3,4.7C64.3,62.8,62.8,60.6,62.8,58.1z
	 M36.1,46.5c1.7,0,3.3-2.2,3.3-4.7c0-2.5-1.5-4.7-3.3-4.7s-3.3,2.2-3.3,4.7C32.8,44.4,34.4,46.5,36.1,46.5z M2.3,44.9l2-1.7
	c2.2-1.9,2.9-4.9,1.7-7.6l-1-2.4c-1.4-3.4,0.2-7.3,3.6-8.7c0.2-0.1,0.5-0.2,0.8-0.3l2.5-0.7c2.7-0.8,4.7-3.2,4.8-6l0.1-2.6
	c0.2-3.5,3.1-6.3,6.6-6.3c0.4,0,0.8,0,1.2,0.1l2.6,0.5c2.8,0.5,5.6-0.8,7-3.3l1.2-2.3c1.8-3.2,5.8-4.4,9-2.6C44.7,1,45,1.1,45.2,1.3
	l2.2,1.5c2.3,1.7,5.4,1.7,7.8,0l2.2-1.5c3-2.2,7.1-1.5,9.3,1.5c0.2,0.2,0.3,0.5,0.5,0.7l1.2,2.3c1.2,2.1,3.4,3.5,5.9,3.5
	c0.4,0,0.7,0,1.1-0.1l2.5-0.4c0.4-0.1,0.8-0.1,1.1-0.1c3.5,0,6.5,2.8,6.6,6.3l0.1,2.6c0.1,2.9,2.1,5.3,4.8,6.1l2.5,0.7
	c3.5,1,5.6,4.7,4.6,8.2c-0.1,0.3-0.2,0.5-0.3,0.8l-1,2.4c-1.1,2.6-0.4,5.7,1.7,7.6l2,1.7c2.8,2.4,3,6.6,0.6,9.4
	c-0.2,0.2-0.4,0.4-0.6,0.6l-2,1.7c-2.2,1.9-2.9,4.9-1.7,7.6l1,2.4c1.4,3.4-0.2,7.3-3.6,8.7c-0.2,0.1-0.5,0.2-0.8,0.3l-2.5,0.7
	c-2.7,0.7-4.7,3.1-4.9,6l-0.1,2.6c-0.2,3.5-3.1,6.3-6.6,6.3c-0.4,0-0.8,0-1.2-0.1l-2.6-0.4c-2.8-0.5-5.6,0.8-7,3.3l-1.2,2.3
	c-1.8,3.2-5.8,4.4-9,2.6c-0.3-0.1-0.5-0.3-0.7-0.5l-2.2-1.5c-2.3-1.7-5.4-1.7-7.8,0l-2.2,1.5c-3,2.2-7.1,1.5-9.3-1.5
	c-0.2-0.2-0.3-0.5-0.5-0.8l-1.2-2.3c-1.4-2.5-4.2-3.9-7-3.4l-2.4,0.4c-0.4,0.1-0.8,0.1-1.1,0.1c-3.5,0-6.5-2.8-6.6-6.3l-0.1-2.6
	c-0.1-2.9-2.1-5.3-4.8-6.1l-2.5-0.7c-3.5-1-5.6-4.7-4.6-8.2c0.1-0.3,0.2-0.5,0.3-0.8l1-2.4c1.1-2.6,0.4-5.7-1.7-7.6l-2-1.7
	c-2.7-2.5-2.9-6.7-0.4-9.4C1.9,45.2,2.1,45,2.3,44.9z M55.9,58.1c0,6.4,4.5,11.6,10.1,11.6c5.6,0,10.1-5.2,10.1-11.6
	S71.7,46.5,66,46.5C60.4,46.5,55.9,51.7,55.9,58.1z M38.1,66.2c-1.1,1.5-0.8,3.7,0.8,4.8c1.5,1.1,3.7,0.8,4.8-0.8
	c0.2-0.2,0.3-0.5,0.4-0.7l20-35.7c1.1-1.5,0.8-3.7-0.8-4.8c-1.5-1.1-3.7-0.8-4.8,0.8c-0.2,0.2-0.3,0.5-0.4,0.7L38.1,66.2z M26,41.9
	c0,6.4,4.5,11.6,10.1,11.6s10.1-5.2,10.1-11.6s-4.5-11.6-10.1-11.6S26,35.5,26,41.9z"/>
</svg>
