<?xml version="1.0" encoding="utf-8"?>
<!-- Generator: Adobe Illustrator 21.0.2, SVG Export Plug-In . SVG Version: 6.00 Build 0)  -->
<svg version="1.1" id="Layer_1" xmlns="http://www.w3.org/2000/svg" xmlns:xlink="http://www.w3.org/1999/xlink" x="0px" y="0px"
	 viewBox="0 0 81.8 100" style="enable-background:new 0 0 81.8 100;" xml:space="preserve">
<style type="text/css">
	.st0{fill:#FBBA42;}
</style>
<g>
	<g>
		<path class="st0" d="M72.7,0H9.1C4.1,0,0,4.1,0,9.1v81.8c0,5,4.1,9.1,9.1,9.1h63.6c5,0,9.1-4.1,9.1-9.1V9.1
			C81.8,4.1,77.7,0,72.7,0z M18.2,88.6c0,1.3-1,2.3-2.3,2.3h-4.5c-1.3,0-2.3-1-2.3-2.3v-4.5c0-1.3,1-2.3,2.3-2.3h4.5
			c1.3,0,2.3,1,2.3,2.3L18.2,88.6L18.2,88.6z M18.2,75c0,1.3-1,2.3-2.3,2.3h-4.5c-1.3,0-2.3-1-2.3-2.3v-4.5c0-1.3,1-2.3,2.3-2.3h4.5
			c1.3,0,2.3,1,2.3,2.3L18.2,75L18.2,75z M18.2,61.4c0,1.3-1,2.3-2.3,2.3h-4.5c-1.3,0-2.3-1-2.3-2.3v-4.5c0-1.3,1-2.3,2.3-2.3h4.5
			c1.3,0,2.3,1,2.3,2.3L18.2,61.4L18.2,61.4z M18.2,47.7c0,1.3-1,2.3-2.3,2.3h-4.5c-1.3,0-2.3-1-2.3-2.3v-4.5c0-1.3,1-2.3,2.3-2.3
			h4.5c1.3,0,2.3,1,2.3,2.3L18.2,47.7L18.2,47.7z M31.8,88.6c0,1.3-1,2.3-2.3,2.3H25c-1.3,0-2.3-1-2.3-2.3v-4.5c0-1.3,1-2.3,2.3-2.3
			h4.5c1.3,0,2.3,1,2.3,2.3L31.8,88.6L31.8,88.6z M31.8,75c0,1.3-1,2.3-2.3,2.3H25c-1.3,0-2.3-1-2.3-2.3v-4.5c0-1.3,1-2.3,2.3-2.3
			h4.5c1.3,0,2.3,1,2.3,2.3L31.8,75L31.8,75z M31.8,61.4c0,1.3-1,2.3-2.3,2.3H25c-1.3,0-2.3-1-2.3-2.3v-4.5c0-1.3,1-2.3,2.3-2.3h4.5
			c1.3,0,2.3,1,2.3,2.3L31.8,61.4L31.8,61.4z M31.8,47.7c0,1.3-1,2.3-2.3,2.3H25c-1.3,0-2.3-1-2.3-2.3v-4.5c0-1.3,1-2.3,2.3-2.3h4.5
			c1.3,0,2.3,1,2.3,2.3L31.8,47.7L31.8,47.7z M45.5,88.6c0,1.3-1,2.3-2.3,2.3h-4.5c-1.3,0-2.3-1-2.3-2.3v-4.5c0-1.3,1-2.3,2.3-2.3
			h4.5c1.3,0,2.3,1,2.3,2.3V88.6z M45.5,75c0,1.3-1,2.3-2.3,2.3h-4.5c-1.3,0-2.3-1-2.3-2.3v-4.5c0-1.3,1-2.3,2.3-2.3h4.5
			c1.3,0,2.3,1,2.3,2.3V75z M45.5,61.4c0,1.3-1,2.3-2.3,2.3h-4.5c-1.3,0-2.3-1-2.3-2.3v-4.5c0-1.3,1-2.3,2.3-2.3h4.5
			c1.3,0,2.3,1,2.3,2.3V61.4z M36.4,47.7v-4.5c0-1.3,1-2.3,2.3-2.3H50c1.3,0,2.3,1,2.3,2.3v4.5c0,1.3-1,2.3-2.3,2.3H38.6
			C37.4,50,36.4,49,36.4,47.7z M59.1,88.6c0,1.3-1,2.3-2.3,2.3h-4.5c-1.3,0-2.3-1-2.3-2.3v-4.5c0-1.3,1-2.3,2.3-2.3h4.5
			c1.3,0,2.3,1,2.3,2.3V88.6z M59.1,75c0,1.3-1,2.3-2.3,2.3h-4.5c-1.3,0-2.3-1-2.3-2.3v-4.5c0-1.3,1-2.3,2.3-2.3h4.5
			c1.3,0,2.3,1,2.3,2.3L59.1,75z M59.1,61.4c0,1.3-1,2.3-2.3,2.3h-4.5c-1.3,0-2.3-1-2.3-2.3v-4.5c0-1.3,1-2.3,2.3-2.3h4.5
			c1.3,0,2.3,1,2.3,2.3V61.4z M72.7,88.6c0,1.3-1,2.3-2.3,2.3h-4.5c-1.3,0-2.3-1-2.3-2.3v-9.1c0-1.3,1-2.3,2.3-2.3h4.5
			c1.3,0,2.3,1,2.3,2.3V88.6z M72.7,70.5c0,1.3-1,2.3-2.3,2.3h-4.5c-1.3,0-2.3-1-2.3-2.3V56.8c0-1.3,1-2.3,2.3-2.3h4.5
			c1.3,0,2.3,1,2.3,2.3V70.5z M72.7,47.7c0,1.3-1,2.3-2.3,2.3H59.1c-1.3,0-2.3-1-2.3-2.3v-4.5c0-1.3,1-2.3,2.3-2.3h11.4
			c1.3,0,2.3,1,2.3,2.3V47.7z M72.7,27.3c0,2.5-2,4.5-4.5,4.5H13.6c-2.5,0-4.5-2-4.5-4.5V13.6c0-2.5,2-4.5,4.5-4.5h54.5
			c2.5,0,4.5,2,4.5,4.5V27.3z"/>
	</g>
</g>
</svg>
