<?xml version="1.0" encoding="utf-8"?>
<!-- Generator: Adobe Illustrator 21.0.2, SVG Export Plug-In . SVG Version: 6.00 Build 0)  -->
<svg version="1.1" id="Layer_1" xmlns="http://www.w3.org/2000/svg" xmlns:xlink="http://www.w3.org/1999/xlink" x="0px" y="0px"
	 viewBox="0 0 51 100" style="enable-background:new 0 0 51 100;" xml:space="preserve">
<style type="text/css">
	.st0{fill:#FFFFFF;}
</style>
<g>
	<path class="st0" d="M33.6,74.9c0,8,0,16,0,24c0,0.9-0.2,1.1-1.1,1.1c-6.8,0-13.6,0-20.4,0c-0.9,0-1.2-0.3-1.2-1.2
		c0-15.9,0-31.8,0-47.7c0-0.9-0.2-1.2-1.1-1.2c-3,0.1-6,0-9,0C0.2,50,0,49.8,0,49.1c0-5,0-10.1,0-15.1c0-0.8,0.3-0.9,1-0.9
		c3,0,6,0,9,0c0.9,0,1-0.3,1-1.1c0-4.4,0-8.9,0-13.3c0-3.8,0.8-7.5,3.1-10.7c2.4-3.4,5.7-5.5,9.6-6.7c2.9-0.9,5.9-1.3,9-1.3
		C38.5,0,44.2,0,50,0c0.8,0,1,0.3,1,1c0,5.2,0,10.3,0,15.5c0,0.9-0.3,1-1.1,1c-3.6,0-7.3,0-10.9,0c-3.2,0-5.3,2.1-5.3,5.3
		c0,3.1,0,6.3,0,9.4c0,0.8,0.2,1,1,1c5.1,0,10.2,0,15.3,0c0.8,0,1.1,0.2,1,1c-0.6,5.2-1,10.3-1.9,15.4C48.8,50.2,48.4,50,48,50
		c-3,0-6,0-9,0c-1.4,0-2.9,0-4.4,0c-0.8,0-1.1,0.2-1,1C33.6,59,33.6,66.9,33.6,74.9z"/>
</g>
</svg>
