<?xml version="1.0" encoding="utf-8"?>
<!-- Generator: Adobe Illustrator 21.0.2, SVG Export Plug-In . SVG Version: 6.00 Build 0)  -->
<svg version="1.1" id="Layer_1" xmlns="http://www.w3.org/2000/svg" xmlns:xlink="http://www.w3.org/1999/xlink" x="0px" y="0px"
	 viewBox="0 0 77.6 100" style="enable-background:new 0 0 77.6 100;" xml:space="preserve">
<style type="text/css">
	.st0{fill:#FBBA42;}
</style>
<g transform="translate(0,-952.36218)">
	<path class="st0" d="M58.8,952.4c-0.1,0-0.1,0-0.2,0c-0.6,0.1-1.1,0.6-1.3,1.2c-1.1,3.4-3.4,4.7-7,5.3c-3.6,0.5-8.4,0-13.5-0.7
		s-10.5-1.5-15.5-1.4c-5,0.2-9.7,1.4-13,5.1c-0.6,0.7-0.6,1.8,0.1,2.5s1.8,0.6,2.5-0.1c2.4-2.7,6-3.8,10.4-3.9
		c4.5-0.2,9.7,0.6,14.9,1.3c5.1,0.7,10.2,1.3,14.6,0.7s8.2-3,9.8-7.6c0.3-0.9-0.2-1.9-1.1-2.3c-0.2-0.1-0.4-0.1-0.6-0.1
		C58.9,952.4,58.9,952.4,58.8,952.4L58.8,952.4z M58.8,964.7c-0.7,0.1-1.3,0.5-1.5,1.2c-1.1,3.4-3.4,4.7-7,5.3
		c-3.6,0.5-8.4,0-13.5-0.7s-10.5-1.5-15.4-1.3s-9.7,1.4-13,5.1c-0.7,0.7-0.7,1.8,0,2.5c0.7,0.7,1.8,0.7,2.5,0
		c0.1-0.1,0.1-0.1,0.2-0.2c2.4-2.7,6-3.7,10.5-3.9c4.5-0.2,9.7,0.6,14.8,1.3s10.2,1.3,14.5,0.7s8.3-2.9,9.8-7.6
		c0.3-0.9-0.1-1.9-1.1-2.3C59.3,964.7,59.1,964.7,58.8,964.7z M1.7,981.5c-0.9,0.1-1.6,0.9-1.6,1.8V994c-0.1,0.3-0.1,0.7,0,1v10.2
		c-0.1,0.3-0.1,0.7,0,1L0,1050.6c0,1,0.8,1.8,1.8,1.8l73.6-0.1c0.2,0.1,0.5,0.1,0.7,0c0.2-0.1,0.5-0.2,0.7-0.3
		c0.6-0.4,0.9-1.2,0.7-2v-49.9c0-1-0.8-1.8-1.8-1.7c-0.3,0-0.6,0.1-0.9,0.2l-26.5,15.3v-13.7c0-1-0.8-1.8-1.8-1.7
		c-0.3,0-0.6,0.1-0.9,0.2l-26.5,15.3v-7.8c0-0.2,0-0.5,0-0.7v-10.5c0-0.2,0-0.5,0-0.7v-10.8c0-1-0.8-1.8-1.8-1.8H1.8
		C1.8,981.5,1.7,981.5,1.7,981.5L1.7,981.5z M10.8,1023.7h8.9v6.7h-8.9V1023.7z M26.5,1023.7h9v6.7h-9V1023.7z M42.2,1023.7h9v6.7
		h-9V1023.7z M57.8,1023.7h8.9v6.7h-8.9V1023.7z M10.8,1037.1h8.9v6.7h-8.9V1037.1z M26.5,1037.1h9v6.7h-9V1037.1z M42.2,1037.1h9
		v6.7h-9V1037.1z M57.8,1037.1h8.9v6.7h-8.9V1037.1z"/>
</g>
</svg>
