<?xml version="1.0" encoding="utf-8"?>
<!-- Generator: Adobe Illustrator 21.0.2, SVG Export Plug-In . SVG Version: 6.00 Build 0)  -->
<svg version="1.1" id="Layer_1" xmlns="http://www.w3.org/2000/svg" xmlns:xlink="http://www.w3.org/1999/xlink" x="0px" y="0px"
	 viewBox="0 0 100 100" style="enable-background:new 0 0 100 100;" xml:space="preserve">
<style type="text/css">
	.st0{fill:#FFFFFF;}
</style>
<g>
	<path class="st0" d="M50,24c-14.1,0-25.8,11.5-25.8,25.8c0,14.3,11.5,25.8,25.8,25.8c14.3,0,25.8-11.7,25.8-25.8
		C75.8,35.7,64.1,24,50,24z M50,66.3c-9.1,0-16.5-7.5-16.5-16.5S40.9,33.3,50,33.3s16.5,7.5,16.5,16.5S59.1,66.3,50,66.3z"/>
	<circle class="st0" cx="76.8" cy="23.4" r="5.8"/>
	<path class="st0" d="M91.9,8.3C86.7,2.8,79.2,0,70.8,0H29.2C11.7,0,0,11.7,0,29.2v41.3c0,8.7,2.8,16.1,8.5,21.6
		c5.4,5.2,12.7,7.9,21,7.9h41.1c8.7,0,15.9-2.8,21.2-7.9c5.4-5.2,8.3-12.7,8.3-21.4V29.2C100,20.8,97.2,13.5,91.9,8.3z M91.1,70.8
		c0,6.3-2.2,11.3-5.8,14.7s-8.7,5.2-14.7,5.2H29.4c-6,0-11.1-1.8-14.7-5.2c-3.6-3.6-5.4-8.7-5.4-14.9V29.2c0-6,1.8-11.1,5.4-14.7
		c3.4-3.4,8.7-5.2,14.7-5.2H71c6,0,11.1,1.8,14.7,5.4c3.4,3.6,5.4,8.7,5.4,14.5L91.1,70.8L91.1,70.8z"/>
</g>
</svg>
