<?xml version="1.0" encoding="utf-8"?>
<!-- Generator: Adobe Illustrator 21.0.2, SVG Export Plug-In . SVG Version: 6.00 Build 0)  -->
<svg version="1.1" id="Layer_1" xmlns="http://www.w3.org/2000/svg" xmlns:xlink="http://www.w3.org/1999/xlink" x="0px" y="0px"
	 viewBox="0 0 135.7 100" style="enable-background:new 0 0 135.7 100;" xml:space="preserve">
<style type="text/css">
	.st0{fill:#FFFFFF;}
</style>
<g>
	<g transform="translate(-19.000000, -41.000000)">
		<path class="st0" d="M147.6,55.3h-100c-4,0-7.1-3.2-7.1-7.1c0-4,3.2-7.1,7.1-7.1h100c4,0,7.1,3.2,7.1,7.1
			C154.7,52.1,151.5,55.3,147.6,55.3z M147.6,98.1H26.1c-3.9,0-7.1-3.2-7.1-7.1c0-4,3.2-7.1,7.1-7.1h121.5c3.9,0,7.1,3.2,7.1,7.1
			C154.7,95,151.5,98.1,147.6,98.1z M147.5,141H61.9c-4,0-7.2-3.2-7.2-7.1c0-4,3.2-7.1,7.2-7.1h85.6c4,0,7.2,3.2,7.2,7.1
			C154.7,137.8,151.5,141,147.5,141z"/>
	</g>
</g>
</svg>
