<?xml version="1.0" encoding="utf-8"?>
<!-- Generator: Adobe Illustrator 21.0.2, SVG Export Plug-In . SVG Version: 6.00 Build 0)  -->
<svg version="1.1" id="Layer_1" xmlns="http://www.w3.org/2000/svg" xmlns:xlink="http://www.w3.org/1999/xlink" x="0px" y="0px"
	 viewBox="0 0 142 100" style="enable-background:new 0 0 142 100;" xml:space="preserve">
<style type="text/css">
	.st0{fill:#2F3440;}
</style>
<path class="st0" d="M108.5,49.9l16.6,16.6v-0.3c9.2,9.2,16.8,16.6,16.8,16.6c0.1,0,0.1-15,0.1-33.2V16.3l-16.8,16.8L108.5,49.9z"/>
<path class="st0" d="M103.4,55.1c0,0-5.6,5.5-12.4,12.2c-12.8,12.6-13.1,13-16.3,14c-3,1-7.6,0.3-10.4-1.4
	c-0.8-0.5-5.9-5.4-13.5-12.9L38.6,54.9L19.4,74.2C2.2,91.3,0.1,93.5,0.1,94.2c0,2.5,2.1,5.2,4.4,5.8v-0.1c0.4,0.1,30.6,0.1,67,0.1
	h66.2l1.2-0.7c0.7-0.4,1.2-0.8,1.2-1c0-0.3,0.1-0.3,0.3-0.1s0.3,0.1,0.1,0c-0.1-0.1,0.1-0.7,0.4-1.1c0.4-0.5,0.6-1.4,0.7-2.3
	l0.1-1.5l-19.1-19.1C112.2,63.7,103.6,55.1,103.4,55.1z"/>
<polygon class="st0" points="0.1,16.5 0.1,50 0.1,83.4 16.9,66.8 33.7,50 16.9,33.2 "/>
<path class="st0" d="M67.6,73.6c0.4,0.3,1.2,0.7,1.6,0.8v0.1c1.4,0.4,3.2,0.3,4.5-0.4c1-0.5,7.7-7.1,34.8-34.2L142,6.5l-0.1-1.5
	c-0.1-1.8-1.1-3.4-2.7-4.4L138,0H3.7L2.6,0.8c-1.4,1-2.3,2.6-2.5,4.4L0,6.5l33.4,33.2C51.6,58.1,67,73.4,67.6,73.6z"/>
</svg>
