<?xml version="1.0" encoding="utf-8"?>
<!-- Generator: Adobe Illustrator 21.0.2, SVG Export Plug-In . SVG Version: 6.00 Build 0)  -->
<svg version="1.1" id="Layer_1" xmlns="http://www.w3.org/2000/svg" xmlns:xlink="http://www.w3.org/1999/xlink" x="0px" y="0px"
	 viewBox="0 0 99.9 100" style="enable-background:new 0 0 99.9 100;" xml:space="preserve">
<style type="text/css">
	.st0{fill:#FBBA42;}
</style>
<g>
	<path class="st0" d="M99.3,35.2L80.6,3.9c-2.2-3.8-6.3-4.8-9.5-2.9L21.5,30.5c-2.7,1.6-3.9,4.8-2.6,8.1
		C14.6,41.3,7.5,68.3,7.5,68.3l-6.1,5.1C0,74.5-0.4,76.4,0.4,78l10.7,20c0.9,1.7,2.9,2.4,4.7,1.7c3.4-1.5,8.9-3.6,14-4.3
		c3.9-0.5,8.7-4.3,9.5-5.4c2.5-3.1,28.1-34.5,28.1-34.5c2.5-3.2,1.9-7.9-1.5-10.2c-3.1-2.1-7.3-1.4-9.7,1.5L44.1,61.6
		c-1.9,2.3-5.4,2-6.8-0.5L31,50.5l53.1-31.7l10.7,18c0.5,0.9,0.2,2.2-0.7,2.8L73.8,51.7c0,0.1,0,0.1,0,0.2c0,1.6-0.5,3.2-1.6,4.4
		L59.8,71.6l0.3,0.5c1.3,2.3,4.2,3.1,6.5,1.8l0.7-0.4c2.3-1.3,3.3-4,2.6-6.4c0.5,0.2,1.1,0.2,1.6,0.2c0.9,0,1.9-0.2,2.7-0.7
		c2.6-1.5,3.6-4.9,2.1-7.6l0,0c0.5,0.2,1.1,0.2,1.7,0.2c0.9,0,1.9-0.2,2.7-0.7c2.5-1.4,3.5-4.5,2.3-7l13.4-7.9
		C99.7,41.7,100.7,37.6,99.3,35.2z M25.9,42l-2.8-4.7c-0.6-0.9-0.2-2.2,0.7-2.8L73.5,4.8c0.9-0.5,2.2-0.2,2.8,0.7l2.8,4.7L25.9,42z"
		/>
	<path class="st0" d="M76.5,42.7l9.4-5.6c0.9-0.5,1.3-1.8,0.7-2.7L83.5,29c-0.5-0.9-1.8-1.3-2.7-0.7l-9.4,5.6
		c-0.9,0.5-1.3,1.8-0.7,2.7l3.2,5.4C74.3,42.9,75.6,43.2,76.5,42.7z"/>
</g>
</svg>
