<?xml version="1.0" encoding="utf-8"?>
<!-- Generator: Adobe Illustrator 21.0.2, SVG Export Plug-In . SVG Version: 6.00 Build 0)  -->
<svg version="1.1" id="Layer_1" xmlns="http://www.w3.org/2000/svg" xmlns:xlink="http://www.w3.org/1999/xlink" x="0px" y="0px"
	 viewBox="0 0 92.4 100" style="enable-background:new 0 0 92.4 100;" xml:space="preserve">
<style type="text/css">
	.st0{fill:#FFFFFF;}
</style>
<path class="st0" d="M90.4,77.9l-0.6-1.1c-1.6-3.7-20.7-9.2-22.2-9.3l-1.2,0.1c-2.3,0.4-4.9,2.6-9.9,6.9c-1,0.9-2.3,1.1-3.6,0.4
	c-6.6-3.7-14.6-11-18.6-15.5c-4.3-4.8-9.6-12.7-12-19c-0.4-1.2,0-2.6,0.9-3.4c5.7-5.1,8.1-7.6,8.3-10.2c0.1-1.6-3.2-21.2-6.7-23.1
	l-1-0.7c-2.2-1.4-5.6-3.6-9.2-2.8c-0.9,0.2-1.8,0.6-2.6,1C9.6,2.7,3.5,7,0.7,12.4c-1.7,3.4-2.4,34.7,20.9,61.1
	c23.1,26.1,51.7,27.2,55.9,26.4h0.1l0.3-0.1c5.8-2.1,10.7-7.6,12.6-9.9C94,85.7,91.7,80.7,90.4,77.9z"/>
</svg>
