<?xml version="1.0" encoding="utf-8"?>
<!-- Generator: Adobe Illustrator 21.0.2, SVG Export Plug-In . SVG Version: 6.00 Build 0)  -->
<svg version="1.1" id="Layer_1" xmlns="http://www.w3.org/2000/svg" xmlns:xlink="http://www.w3.org/1999/xlink" x="0px" y="0px"
	 viewBox="0 0 100 100" style="enable-background:new 0 0 100 100;" xml:space="preserve">
<style type="text/css">
	.st0{fill:#FBBA42;}
</style>
<g>
	<path class="st0" d="M95,25H81c2.5-2.5,4-6,4-10c0-8.5-6.5-15-15-15c-5,0-14,4.5-20,10.5C44,4.5,35,0,30,0c-8.5,0-15,6.5-15,15
		c0,4,1.5,7.5,4,10H5c-3,0-5,2-5,5v14c0,0.5,0.5,1,1,1h42c1,0,2-1,2-2V27c0-1,1-2,2-2h6c1,0,2,1,2,2v16c0,1,1,2,2,2h42
		c0.5,0,1-0.5,1-1V30C100,27,98,25,95,25z M30,20c-3,0-5-2-5-5s2-5,5-5s12,6,14.5,9C43,19.5,30,20,30,20z M70,20c0,0-13-0.5-14.5-1
		c3-3.5,11.5-9,14.5-9s5,2,5,5S73,20,70,20z"/>
	<path class="st0" d="M43,55H6c-0.5,0-1,0.5-1,1v39c0,3,2,5,5,5h33c1,0,2-1,2-2V57C45,56,44,55,43,55z"/>
	<path class="st0" d="M94,55H57c-1,0-2,1-2,2v41c0,1,1,2,2,2h33c3,0,5-2,5-5V56C95,55.5,94.5,55,94,55z"/>
</g>
</svg>
