<?xml version="1.0" encoding="utf-8"?>
<!-- Generator: Adobe Illustrator 21.0.2, SVG Export Plug-In . SVG Version: 6.00 Build 0)  -->
<svg version="1.1" id="Layer_1" xmlns="http://www.w3.org/2000/svg" xmlns:xlink="http://www.w3.org/1999/xlink" x="0px" y="0px"
	 viewBox="0 0 67.3 100" style="enable-background:new 0 0 67.3 100;" xml:space="preserve">
<style type="text/css">
	.st0{fill:#FBBA42;}
</style>
<path class="st0" d="M33.6,17.5c-8.6,0-15.4,7-15.4,15.4c0,8.6,7,15.4,15.4,15.4c8.6,0,15.4-7,15.4-15.4S42.2,17.5,33.6,17.5z
	 M34.8,37l-3.5,3.5L27.8,37l-3.4-3.4l3.5-3.5l3.4,3.4l8-8l3.5,3.5L34.8,37z M64.4,28.6c-1.4-1.3-1.9-3.3-1.2-5l0.6-1.6
	c1.1-2.4-0.3-5.2-2.9-5.9l-1.7-0.4c-1.8-0.5-3.1-2.1-3.2-4V9.9c-0.1-2.6-2.5-4.5-5.1-4.1l-1.7,0.3c-1.9,0.3-3.7-0.5-4.5-2.2
	l-0.8-1.5c-1.3-2.3-4.2-3-6.3-1.5l-1.4,1c-1.5,1.1-3.6,1.1-5.1,0l-1.4-1.1c-2.1-1.6-5.2-0.8-6.4,1.5l-0.8,1.5
	c-1,1.7-2.7,2.5-4.6,2.2l-1.7-0.3c-2.6-0.4-5,1.5-5.2,4.1L11,11.5c-0.1,1.9-1.4,3.5-3.2,4L6.2,16c-2.5,0.7-3.9,3.5-2.9,5.9l0.6,1.6
	c0.7,1.7,0.2,3.7-1.2,5l-1.3,1.2c-2,1.7-2,4.9,0,6.5l1.3,1.2c1.4,1.3,1.9,3.3,1.2,5l-0.6,1.6c-1.1,2.4,0.3,5.2,2.9,5.9l1.7,0.4
	c1.8,0.5,3.1,2.1,3.2,4l0.1,1.7c0.1,2.6,2.5,4.5,5.1,4.1l1.7-0.3c1.9-0.3,3.7,0.5,4.5,2.2l0.8,1.5c1.3,2.3,4.2,3,6.3,1.5l1.4-1
	c1.5-1.1,3.6-1.1,5.1,0l1.4,1.1c2.1,1.6,5.2,0.8,6.4-1.5l0.8-1.5c1-1.7,2.7-2.5,4.6-2.2l1.7,0.3c2.6,0.4,5-1.5,5.2-4.1l0.1-1.7
	c0.1-1.9,1.4-3.5,3.2-4l1.7-0.4c2.5-0.7,3.9-3.5,2.9-5.9l-0.6-1.6c-0.7-1.7-0.2-3.7,1.2-5l1.3-1.2c2-1.7,2-4.9,0-6.5L64.4,28.6z
	 M33.6,54.4c-11.8,0-21.3-9.6-21.3-21.3c0-11.8,9.6-21.3,21.3-21.3c11.8,0,21.3,9.6,21.3,21.3S45.4,54.4,33.6,54.4z M0.4,91.6
	l10.3-25.9c1.4,0.6,3,1.1,4.5,1.1c0.6,0,1.3-0.1,1.9-0.2h0.2l0.1,0.2c1.8,3.4,5.5,5.5,9.5,5.5c1.1,0,2.2-0.2,3.2-0.5L19.4,99.1
	c-0.3,0.8-1.5,1-1.9,0.1l-5.2-9.1c-0.2-0.3-0.5-0.4-0.8-0.3l-9.7,3.1C0.9,93.1,0.1,92.3,0.4,91.6z M47.9,99.4l-11-27.5
	c1.1,0.3,2.1,0.5,3.2,0.5c4,0,7.6-2.1,9.5-5.6l0.1-0.2h0.2c0.6,0.1,1.3,0.2,1.9,0.2c1.7,0,3.2-0.4,4.6-1.1l10.3,26.1
	c0.3,0.8-0.4,1.7-1.3,1.4l-9.7-3.1c-0.3-0.1-0.6,0-0.8,0.3l-5.2,9.1C49.3,100.2,48.2,100.1,47.9,99.4z"/>
</svg>
