<?xml version="1.0" encoding="utf-8"?>
<!-- Generator: Adobe Illustrator 21.0.2, SVG Export Plug-In . SVG Version: 6.00 Build 0)  -->
<svg version="1.1" id="Layer_1" xmlns="http://www.w3.org/2000/svg" xmlns:xlink="http://www.w3.org/1999/xlink" x="0px" y="0px"
	 viewBox="0 0 100 100" style="enable-background:new 0 0 100 100;" xml:space="preserve">
<style type="text/css">
	.st0{fill:#FBBA42;}
</style>
<path class="st0" d="M93.1,0L58.6,2c-1.6,0.1-3.1,0.8-4.3,1.9L1.9,56.3c-2.6,2.6-2.6,6.7,0,9.2l32.5,32.5c2.6,2.6,6.7,2.6,9.2,0
	l52.5-52.5c1.1-1.1,1.8-2.6,1.9-4.3l2-34.5C100.2,3,97-0.2,93.1,0z M38.4,94L6,61.6l0.9-0.9l32.4,32.4L38.4,94z M61,49.9l0.4,1.4
	L55.5,54l-0.5-1.9c-0.2-0.8-0.7-2.4-2.3-4c-0.7-0.7-1.4-1.1-2-1.1c-0.6,0-1.1,0.3-1.3,0.5c-0.3,0.3-0.5,0.6-0.5,1.2
	c0,0.8,0.4,2.1,1.2,4.1c0.7,1.6,1.4,3.7,1.4,5.8c0,2.3-0.9,4.4-2.6,6.1C45.9,67.5,41.8,68,38,66l-3.4,3.4L30.4,65l3.1-3.1
	c-1.4-1.8-2.3-3.7-2.6-5.5l-0.2-1.3l5.9-2.8l0.4,2.1c0.4,1.7,1.3,3.5,2.5,4.7c1.4,1.4,3,1.7,4.1,0.6c0.4-0.4,0.7-0.8,0.7-1.7
	c0-0.8-0.3-2-0.9-3.3c-0.8-1.8-1.7-4.1-1.7-6.5c0-2.2,0.8-4,2.3-5.6c2.8-2.8,6.7-3.2,10.3-1.3l3.2-3.2l4.3,4.3l-3,3
	C59.8,46.9,60.5,48.3,61,49.9z M82,27.6c-1.3,1.5-3.2,2.4-5.1,2.4c-1.8,0-3.5-0.7-4.8-2c-1.3-1.3-2-3-2-4.8c0-1.8,0.7-3.5,2-4.8
	c1.3-1.3,3-2,4.8-2c2.2,0,4.2,1,5.5,2.8C84.1,21.7,84,25.2,82,27.6z"/>
</svg>
