<?xml version="1.0" encoding="utf-8"?>
<!-- Generator: Adobe Illustrator 21.0.2, SVG Export Plug-In . SVG Version: 6.00 Build 0)  -->
<svg version="1.1" id="Layer_1" xmlns="http://www.w3.org/2000/svg" xmlns:xlink="http://www.w3.org/1999/xlink" x="0px" y="0px"
	 viewBox="0 0 106 100" style="enable-background:new 0 0 106 100;" xml:space="preserve">
<style type="text/css">
	.st0{fill:#FBBA42;}
</style>
<g>
	<path class="st0" d="M75.6,39.2c-16.8,0-30.4,13.6-30.4,30.4S58.9,100,75.6,100c16.8,0,30.4-13.6,30.4-30.4S92.4,39.2,75.6,39.2z
		 M88.8,80.1c-0.6,4.2-3.1,7-7.6,8.5c-0.6,0.2-1.3,0.3-2,0.5c-0.1,0-0.1,0-0.2,0V94H73v-4.9c-7.8-1.9-11.3-5.9-10.6-12.2l0.1-0.9
		h8.6l0.1,0.9c0.1,0.4,0.1,0.8,0.2,1.3c0.2,2.1,1.6,3.4,3.6,3.6c0.3,0,0.5,0,0.8,0l0.6,0c1.7,0,2.8-0.8,3.2-2.1
		c0.5-1.7,0.1-3.4-1.2-4.2c-0.8-0.5-1.7-0.9-2.7-1.4c-0.5-0.2-1-0.4-1.4-0.7c-0.7-0.3-1.3-0.6-2-0.9c-1.6-0.7-3.2-1.4-4.7-2.5
		c-2.9-2.1-4.5-5.6-4.2-9.3c0.3-3.8,2.5-7,5.8-8.7c1-0.5,2.1-0.8,3.2-1.2c0.3-0.1,0.7-0.2,1-0.3v-5.2h5.9v5.4c3.8,0.9,6.4,2.6,8,5.3
		c1.1,1.9,1.7,4.4,1.4,6.6l-0.1,0.9H80l-0.3-1.6c-0.1-0.6-0.2-1.2-0.4-1.7c-0.5-1.5-1.6-2.2-3.3-2.2c-2.3,0-2.9,0.9-3.2,1.9
		c-0.6,1.8-0.2,3.5,1,4.2c1,0.7,2.1,1.1,3.2,1.7c0.4,0.2,0.8,0.4,1.3,0.6c0.7,0.3,1.3,0.6,2,0.9c1.3,0.6,2.6,1.2,3.9,2
		C87.9,71.4,89.5,75.2,88.8,80.1z"/>
	<g>
		<g>
			<path class="st0" d="M11.8,54.3c-0.4-0.9-1.3-2.4-2.8-2.8c-0.3-0.1-0.7-0.1-1.1-0.1c-1,0-2.3,0.3-3.2,1.2
				c-1.2,1.1-1.3,3.2-0.8,4.5c1.5,3.8,3.6,7.4,6.5,10.7c7,8.1,15.9,12.9,26.4,14.2c1.4,0.2,2.8,0.3,4.3,0.3c-1-2.7-1.7-5.6-2-8.6
				C27.2,72.6,16.7,65.3,11.8,54.3z"/>
			<path class="st0" d="M76.5,19.2C71,10.5,62.5,4.3,52.5,1.6C48.5,0.5,44.7,0,40.9,0C30.3,0,20.6,4.2,12.1,12.6
				c-2.8,2.8-5.1,6-7,9.7L5,22.2c0,0,0,0,0,0c-0.4-0.2-1.5-1.2-3.5-2.9l0,0c-0.3-0.2-0.6-0.2-0.8-0.1c-0.1,0-0.1,0-0.2,0.1
				C0.2,19.4,0.1,19.7,0,20c0,0.1,0,0.1,0,0.2l0.5,3.4l1.7,12.2l0.2,1.7c0.1,0.6,0.4,1.1,0.9,1.3c0.1,0,0.1,0.1,0.2,0.1l0.1,0
				c0.2,0.1,0.3,0.1,0.5,0.1c0.5,0,0.9-0.1,1.3-0.4L9,35.9l8.5-6.7l1.6-1.2c0.4-0.3,0.5-0.8,0.2-1.2c-0.1-0.2-0.4-0.4-0.6-0.4l0,0
				c-2.6-0.2-4.1-0.3-4.5-0.4c0,0-0.2,0-0.6,0c-0.2,0-0.4,0-0.6-0.1c0.9-1.7,2-3.3,3.2-4.9c6.8-8.2,15.4-12.4,25.7-12.4
				c0.9,0,1.8,0,2.8,0.1c13.4,0.9,25.2,11,28.7,24.2c0.8-0.1,1.6-0.1,2.5-0.1c2.2,0,4.3,0.2,6.3,0.6C81,28.3,79.2,23.5,76.5,19.2z"
				/>
			<path class="st0" d="M45.9,36.1l-1-16.4c0-1.9-1.6-3.5-3.6-3.5c-2,0-3.5,1.6-3.6,3.5l-1,16.4c-2.1,1.5-3.4,3.9-3.4,6.5
				c0,0.4,0,0.8,0.1,1.2l-7.9,8.9c-0.7,0.6-1.1,1.5-1.1,2.4c0,1,0.3,1.9,0.9,2.6c0.7,0.7,1.6,1.2,2.6,1.2c0.9,0,1.7-0.3,2.4-0.9
				l9.2-7.6c0.6,0.1,1.2,0.2,1.8,0.2c1.1,0,2.1-0.2,3.1-0.6c2.5-1,4.3-3.3,4.8-6.1c0.1-0.4,0.1-0.8,0.1-1.3
				C49.4,40.1,48.1,37.6,45.9,36.1z M41.4,46.1c-1.9,0-3.5-1.6-3.5-3.5c0-1.9,1.6-3.5,3.5-3.5c1.9,0,3.5,1.6,3.5,3.5
				C44.9,44.6,43.3,46.1,41.4,46.1z"/>
		</g>
	</g>
</g>
</svg>
