<?xml version="1.0" encoding="utf-8"?>
<!-- Generator: Adobe Illustrator 21.0.2, SVG Export Plug-In . SVG Version: 6.00 Build 0)  -->
<svg version="1.1" id="Layer_1" xmlns="http://www.w3.org/2000/svg" xmlns:xlink="http://www.w3.org/1999/xlink" x="0px" y="0px"
	 viewBox="0 0 141.2 100" style="enable-background:new 0 0 141.2 100;" xml:space="preserve">
<style type="text/css">
	.st0{fill:#FBBA42;}
</style>
<path class="st0" d="M141.2,48.1c0-0.7-0.2-1.4-0.6-2l-21.7-32.6c-0.7-1.1-1.9-1.7-3.2-1.7H100H86.2h0c-2.1,0-3.9,1.7-3.9,3.9v62.9
	c0,2.1,1.7,3.9,3.9,3.9h7.9h0c0,9.7,7.9,17.6,17.6,17.6c9.7,0,17.6-7.9,17.6-17.6h7.9c2.1,0,3.9-1.7,3.9-3.9V48.2
	C141.2,48.2,141.2,48.1,141.2,48.1z M100,47.1V23.5h14.9l15.7,23.5H100z M111.8,91.2c-4.9,0-8.8-4-8.8-8.8s4-8.8,8.8-8.8
	c4.9,0,8.8,4,8.8,8.8S116.6,91.2,111.8,91.2z M71.3,0H5.1C2.3,0,0,2.3,0,5.1v72.1c0,2.8,2.3,5.1,5.1,5.1h12.5
	c0,9.7,7.9,17.6,17.6,17.6s17.6-7.9,17.6-17.6h18.4c2.8,0,5.1-2.3,5.1-5.1V5.1C76.5,2.3,74.2,0,71.3,0z M35.3,91.2
	c-4.9,0-8.8-4-8.8-8.8s4-8.8,8.8-8.8c4.9,0,8.8,4,8.8,8.8S40.2,91.2,35.3,91.2z"/>
</svg>
